<svg width="300" height="300" viewBox="0 0 300 300" fill="none" xmlns="http://www.w3.org/2000/svg">
<ellipse cx="149.5" cy="72.5" rx="90.5" ry="21.5" fill="#66CCFF" fill-opacity="0.5"/>
<path d="M59 103H240L208 249H91L59 103Z" fill="#66CCFF" fill-opacity="0.6"/>
<path d="M144.192 194.664C144.192 198.76 143.2 202.248 141.216 205.128C139.232 207.944 136.384 210.12 132.672 211.656C129.024 213.192 124.704 213.96 119.712 213.96C117.152 213.96 114.688 213.832 112.32 213.576C110.016 213.32 107.904 212.968 105.984 212.52C104.064 212.008 102.368 211.4 100.896 210.696V202.44C103.2 203.464 106.048 204.392 109.44 205.224C112.896 206.056 116.448 206.472 120.096 206.472C123.488 206.472 126.336 206.024 128.64 205.128C130.944 204.232 132.672 202.952 133.824 201.288C134.976 199.624 135.552 197.672 135.552 195.432C135.552 193.192 135.072 191.304 134.112 189.768C133.152 188.232 131.488 186.824 129.12 185.544C126.816 184.2 123.584 182.792 119.424 181.32C116.48 180.232 113.888 179.08 111.648 177.864C109.472 176.584 107.648 175.144 106.176 173.544C104.704 171.944 103.584 170.12 102.816 168.072C102.112 166.024 101.76 163.656 101.76 160.968C101.76 157.32 102.688 154.216 104.544 151.656C106.4 149.032 108.96 147.016 112.224 145.608C115.552 144.2 119.36 143.496 123.648 143.496C127.424 143.496 130.88 143.848 134.016 144.552C137.152 145.256 140 146.184 142.56 147.336L139.872 154.728C137.504 153.704 134.912 152.84 132.096 152.136C129.344 151.432 126.464 151.08 123.456 151.08C120.576 151.08 118.176 151.496 116.256 152.328C114.336 153.16 112.896 154.344 111.936 155.88C110.976 157.352 110.496 159.08 110.496 161.064C110.496 163.368 110.976 165.288 111.936 166.824C112.896 168.36 114.464 169.736 116.64 170.952C118.816 172.168 121.76 173.48 125.472 174.888C129.504 176.36 132.896 177.96 135.648 179.688C138.464 181.352 140.576 183.368 141.984 185.736C143.456 188.104 144.192 191.08 144.192 194.664ZM196.016 160.488C196.016 163.56 195.44 166.216 194.288 168.456C193.136 170.696 191.472 172.52 189.296 173.928C187.184 175.336 184.688 176.328 181.808 176.904V177.288C187.312 177.928 191.408 179.656 194.096 182.472C196.784 185.288 198.128 188.968 198.128 193.512C198.128 197.48 197.2 201.032 195.344 204.168C193.488 207.24 190.608 209.64 186.704 211.368C182.864 213.096 177.904 213.96 171.824 213.96C168.24 213.96 164.912 213.672 161.84 213.096C158.768 212.584 155.824 211.624 153.008 210.216V202.344C155.888 203.752 158.992 204.872 162.32 205.704C165.648 206.472 168.848 206.856 171.92 206.856C178.064 206.856 182.48 205.672 185.168 203.304C187.92 200.872 189.296 197.544 189.296 193.32C189.296 190.44 188.528 188.136 186.992 186.408C185.52 184.616 183.344 183.304 180.464 182.472C177.584 181.64 174.128 181.224 170.096 181.224H163.472V174.024H170.192C173.968 174.024 177.104 173.48 179.6 172.392C182.16 171.304 184.08 169.8 185.36 167.88C186.704 165.896 187.376 163.624 187.376 161.064C187.376 157.736 186.256 155.176 184.016 153.384C181.776 151.528 178.736 150.6 174.896 150.6C172.464 150.6 170.256 150.856 168.272 151.368C166.288 151.816 164.432 152.488 162.704 153.384C161.04 154.216 159.344 155.208 157.616 156.36L153.392 150.6C155.056 149.32 156.944 148.136 159.056 147.048C161.232 145.96 163.632 145.096 166.256 144.456C168.88 143.816 171.728 143.496 174.8 143.496C181.968 143.496 187.28 145.096 190.736 148.296C194.256 151.496 196.016 155.56 196.016 160.488Z" fill="white" fill-opacity="0.8"/>
</svg>
